#!OML:ASF F:\VICON\USERDATA\INSTALL\Justin_Nancy\Justin_Nancy.ASF
:FULLY-SPECIFIED
:DEGREES
381
root -15.0998 17.2291 18.0853 -4.29308 -48.4212 5.05183
lowerback 7.28703 -0.971782 -4.17007
upperback 0.609636 -1.58173 1.70482
thorax -3.29474 -0.722604 4.27462
lowerneck -15.6792 -3.26472 -8.87693
upperneck 22.3488 -3.49388 4.53692
head 9.936 -1.90748 2.60836
rclavicle -6.69407e-014 8.74653e-015
rhumerus -34.8851 -18.4015 -76.6961
rradius 29.486
rwrist 7.08138
rhand -10.3331 18.1585
rfingers 7.12502
rthumb 15.6629 -11.2275
lclavicle -6.69407e-014 8.74653e-015
lhumerus -27.9521 10.7697 83.2669
lradius 25.531
lwrist -11.0444
lhand -16.6762 24.3026
lfingers 7.12502
lthumb 9.54777 54.0663
rfemur -27.4491 1.48618 17.6107
rtibia 53.272
rfoot -12.2978 -4.09093
rtoes -0.107863
lfemur -8.00359 -0.378742 -29.0219
ltibia 28.9361
lfoot -15.8446 2.1176
ltoes 8.87126
382
root -15.205 17.2252 18.1891 -4.56631 -48.17 5.52756
lowerback 7.08863 -1.0549 -4.38476
upperback 0.686569 -1.70553 1.55922
thorax -3.0891 -0.789285 4.24785
lowerneck -15.5666 -3.28765 -8.90156
upperneck 22.1221 -3.56437 4.71006
head 9.84242 -1.91968 2.6629
rclavicle 3.43897e-014 1.03368e-014
rhumerus -34.8019 -20.1335 -76.2135
rradius 28.9795
rwrist 8.26307
rhand -10.7541 17.7991
rfingers 7.12502
rthumb 15.2574 -11.6182
lclavicle 3.43897e-014 1.03368e-014
lhumerus -27.5491 10.4385 83.2145
lradius 25.8846
lwrist -11.117
lhand -16.5325 24.0591
lfingers 7.12502
lthumb 9.68637 53.8164
rfemur -27.8883 1.52791 17.1108
rtibia 51.1975
rfoot -12.2668 -4.21383
rtoes -4.79229
lfemur -7.31034 -0.354456 -29.4292
ltibia 28.5278
lfoot -16.237 2.22122
ltoes 7.92587
383
root -15.3029 17.2282 18.2858 -4.73987 -47.6637 5.84501
lowerback 7.17426 -1.22088 -4.5833
upperback 0.673506 -1.94724 1.52315
thorax -3.11988 -0.906066 4.34737
lowerneck -15.3739 -3.31325 -9.00983
upperneck 21.8208 -3.59409 4.77335
head 9.70535 -1.93249 2.69761
rclavicle -3.73218e-014 -7.95139e-016
rhumerus -34.9199 -18.9518 -76.693
rradius 29.459
rwrist 6.07403
rhand -11.7941 15.9838
rfingers 7.12502
rthumb 14.2554 -13.507
lclavicle -3.73218e-014 -7.95139e-016
lhumerus -27.2306 9.816 83.3913
lradius 26.2136
lwrist -10.6642
lhand -17.1086 24.1061
lfingers 7.12502
lthumb 9.13054 53.8884
rfemur -28.1248 1.34618 16.6449
rtibia 49.0064
rfoot -12.4853 -4.28127
rtoes -4.80639
lfemur -6.54741 -0.737735 -29.7431
ltibia 27.9778
lfoot -16.5404 2.42888
ltoes 7.25772
384
root -15.4067 17.2352 18.3886 -4.72362 -47.5549 5.85842
lowerback 7.28879 -1.27733 -4.65575
upperback 0.608578 -2.03126 1.60697
thorax -3.23687 -0.941615 4.48924
lowerneck -15.545 -3.34379 -8.93241
upperneck 22.0505 -3.60451 4.58918
head 9.81528 -1.95339 2.61913
rclavicle 4.00551e-014 8.74653e-015
rhumerus -35.3286 -17.1373 -77.2191
rradius 30.2395
rwrist 3.4214
rhand -13.0805 14.0125
rfingers 7.12502
rthumb 13.0156 -15.5615
lclavicle 4.00551e-014 8.74653e-015
lhumerus -27.0404 9.47909 83.5337
lradius 26.4632
lwrist -10.4276
lhand -17.4379 23.8581
lfingers 7.12502
lthumb 8.81283 53.6541
rfemur -28.2522 1.44649 16.4605
rtibia 46.6362
rfoot -12.4347 -4.33823
rtoes -3.7395
lfemur -5.66891 -1.05525 -29.849
ltibia 27.3545
lfoot -16.7355 2.74874
ltoes 7.28996
385
root -15.5196 17.2347 18.4956 -4.79878 -47.7166 6.14495
lowerback 7.17389 -1.27628 -4.9171
upperback 0.493985 -2.04582 1.62518
thorax -3.28049 -0.940893 4.65617
lowerneck -15.5904 -3.3931 -8.85325
upperneck 22.1975 -3.65699 4.42578
head 9.87584 -1.99202 2.54188
rclavicle 3.03644e-014 7.15625e-015
rhumerus -35.5745 -17.1989 -77.2123
rradius 30.2564
rwrist 3.11179
rhand -14.2058 12.7656
rfingers 7.12502
rthumb 11.9307 -16.8744
lclavicle 3.03644e-014 7.15625e-015
lhumerus -27.0374 9.29942 83.495
lradius 26.8791
lwrist -10.2955
lhand -16.8892 23.5996
lfingers 7.12502
lthumb 9.34224 53.3726
rfemur -28.5017 2.05438 16.0874
rtibia 44.0825
rfoot -11.9155 -5.0609
rtoes -3.41046
lfemur -4.93419 -0.896142 -30.0935
ltibia 26.7699
lfoot -17.0522 2.94998
ltoes 6.76946
386
root -15.6249 17.2332 18.5927 -4.55698 -47.7208 5.98791
lowerback 7.23688 -1.36606 -4.89727
upperback 0.360397 -2.16454 1.73044
thorax -3.4378 -0.991478 4.77172
lowerneck -15.5798 -3.34226 -8.84747
upperneck 22.217 -3.56812 4.33858
head 9.87265 -1.96123 2.52224
rclavicle 2.7482e-014 5.56597e-015
rhumerus -35.6656 -18.0179 -76.8544
rradius 29.854
rwrist 3.88789
rhand -14.3488 12.9787
rfingers 7.12502
rthumb 11.7927 -16.6693
lclavicle 2.7482e-014 5.56597e-015
lhumerus -27.0394 9.17878 83.4299
lradius 27.291
lwrist -10.1053
lhand -16.2191 24.0549
lfingers 7.12502
lthumb 9.98877 53.7979
rfemur -28.699 2.58372 16.0488
rtibia 41.3043
rfoot -11.1882 -6.26681
rtoes -4.63158
lfemur -4.26118 -0.982676 -29.9947
ltibia 26.2993
lfoot -17.3533 3.18973
ltoes 5.88872
387
root -15.7313 17.231 18.6816 -4.30892 -47.707 5.74298
lowerback 7.30326 -1.4108 -4.77248
upperback 0.347156 -2.21668 1.74318
thorax -3.4868 -1.01748 4.72212
lowerneck -15.7236 -3.33459 -8.64722
upperneck 22.2388 -3.57805 4.26608
head 9.90228 -1.95528 2.46092
rclavicle 4.32357e-014 -1.90833e-014
rhumerus -35.6874 -18.5208 -76.7656
rradius 29.5858
rwrist 4.30957
rhand -13.9856 13.863
rfingers 7.12502
rthumb 12.143 -15.7646
lclavicle 4.32357e-014 -1.90833e-014
lhumerus -26.7276 8.83878 83.3119
lradius 27.5293
lwrist -9.94194
lhand -16.3112 24.3276
lfingers 7.12502
lthumb 9.8999 54.0748
rfemur -28.798 2.9343 16.1672
rtibia 38.4247
rfoot -10.0265 -6.97902
rtoes -6.07206
lfemur -3.5612 -0.813777 -29.7763
ltibia 25.8407
lfoot -17.6147 3.11346
ltoes 5.17092
388
root -15.8453 17.2221 18.772 -4.0231 -47.7661 5.70419
lowerback 6.7768 -1.33647 -4.64829
upperback 0.516906 -2.08531 1.64868
thorax -3.03815 -0.972003 4.51679
lowerneck -15.8788 -3.43254 -8.57036
upperneck 22.0567 -3.73906 4.38122
head 9.87847 -2.00338 2.46425
rclavicle 1.21756e-014 -6.36111e-015
rhumerus -35.5851 -18.8281 -76.8839
rradius 29.6161
rwrist 4.46465
rhand -13.9499 14.5053
rfingers 7.12502
rthumb 12.1774 -15.1203
lclavicle 1.21756e-014 -6.36111e-015
lhumerus -26.0789 8.4626 83.2779
lradius 27.7906
lwrist -9.94199
lhand -16.4456 24.1718
lfingers 7.12502
lthumb 9.77023 53.9252
rfemur -29.0204 3.49779 16.0918
rtibia 35.4888
rfoot -8.26183 -7.49144
rtoes -7.18068
lfemur -3.05984 -0.392321 -29.6507
ltibia 25.3354
lfoot -17.8705 2.76776
ltoes 4.31644
389
root -15.9605 17.2252 18.867 -3.75427 -47.7325 5.8409
lowerback 5.94309 -1.24971 -4.55947
upperback 0.783938 -1.92785 1.48891
thorax -2.32048 -0.921705 4.2524
lowerneck -16.1526 -3.50341 -8.49726
upperneck 21.8668 -3.86076 4.54901
head 9.87235 -2.0255 2.49106
rclavicle -3.8266e-015 -1.66979e-014
rhumerus -35.4142 -18.9837 -77.1051
rradius 29.8105
rwrist 4.34219
rhand -13.6988 14.6761
rfingers 7.12502
rthumb 12.4196 -14.935
lclavicle -3.8266e-015 -1.66979e-014
lhumerus -25.1933 7.7276 83.3794
lradius 28.0635
lwrist -9.50763
lhand -16.8929 24.0911
lfingers 7.12502
lthumb 9.3387 53.8642
rfemur -29.2131 4.05378 15.733
rtibia 32.5188
rfoot -7.0946 -7.9872
rtoes -5.43536
lfemur -2.62681 0.0599052 -29.6475
ltibia 24.7809
lfoot -18.0334 2.35563
ltoes 3.3526
390
root -16.0695 17.2298 18.9668 -3.8397 -47.4385 6.36848
lowerback 5.58153 -1.3934 -4.89564
upperback 0.774637 -2.12468 1.41932
thorax -2.0972 -1.02343 4.37102
lowerneck -16.2792 -3.35156 -8.43567
upperneck 21.9022 -3.63146 4.46414
head 9.88881 -1.92256 2.48158
rclavicle -3.39922e-014 -4.77083e-015
rhumerus -35.5031 -19.2516 -76.7992
rradius 29.6336
rwrist 5.06163
rhand -13.0135 15.7705
rfingers 7.12502
rthumb 13.0802 -13.7993
lclavicle -3.39922e-014 -4.77083e-015
lhumerus -24.8916 7.47543 83.454
lradius 28.4177
lwrist -8.91424
lhand -17.5885 24.2868
lfingers 7.12502
lthumb 8.66744 54.0889
rfemur -29.2864 3.83167 15.2303
rtibia 29.5216
rfoot -6.52614 -8.4432
rtoes -5.70743
lfemur -2.11021 0.141919 -30.0238
ltibia 24.2465
lfoot -18.1301 2.14345
ltoes 2.6528
391
root -16.1759 17.2257 19.0716 -4.00386 -47.1678 6.74219
lowerback 5.57228 -1.55154 -5.07141
upperback 0.680657 -2.34819 1.34932
thorax -2.16036 -1.12952 4.41356
lowerneck -16.4407 -3.26028 -8.40039
upperneck 22.2057 -3.49814 4.41338
head 10.016 -1.86725 2.47767
rclavicle -2.97183e-014 7.95139e-015
rhumerus -35.7462 -19.9811 -76.2292
rradius 29.2301
rwrist 6.43943
rhand -12.4521 16.6857
rfingers 7.12502
rthumb 13.6213 -12.8487
lclavicle -2.97183e-014 7.95139e-015
lhumerus -24.9282 7.25469 83.3632
lradius 28.8808
lwrist -8.51693
lhand -17.5472 24.1971
lfingers 7.12502
lthumb 8.70735 53.9975
rfemur -29.1418 3.0713 15.1087
rtibia 26.5565
rfoot -5.76264 -9.29465
rtoes -9.48455
lfemur -1.36589 0.0228965 -30.3101
ltibia 23.6625
lfoot -18.17 1.88991
ltoes 3.28858
